<svg width="91" height="91" viewBox="0 0 91 91" fill="none" xmlns="http://www.w3.org/2000/svg">
<path d="M22.573 72.1877H31.5938V63.1668H40.6147V54.146H31.5938V45.1251H22.573V54.146H13.5521V63.1668H22.573V72.1877ZM49.6355 56.4012H76.6981V49.6356H49.6355V56.4012ZM49.6355 69.9325H67.6772V63.1668H49.6355V69.9325ZM9.0417 90.2294C6.56096 90.2294 4.43806 89.3469 2.67297 87.5818C0.904887 85.8137 0.0208435 83.6893 0.0208435 81.2085V31.5939C0.0208435 29.1131 0.904887 26.9887 2.67297 25.2206C4.43806 23.4555 6.56096 22.573 9.0417 22.573H31.5938V9.04173C31.5938 6.56099 32.4779 4.43658 34.246 2.66849C36.011 0.903414 38.1339 0.020874 40.6147 0.020874H49.6355C52.1163 0.020874 54.2407 0.903414 56.0088 2.66849C57.7738 4.43658 58.6564 6.56099 58.6564 9.04173V22.573H81.2085C83.6893 22.573 85.8137 23.4555 87.5818 25.2206C89.3468 26.9887 90.2294 29.1131 90.2294 31.5939V81.2085C90.2294 83.6893 89.3468 85.8137 87.5818 87.5818C85.8137 89.3469 83.6893 90.2294 81.2085 90.2294H9.0417ZM9.0417 81.2085H81.2085V31.5939H58.6564C58.6564 34.0746 57.7738 36.1975 56.0088 37.9626C54.2407 39.7307 52.1163 40.6147 49.6355 40.6147H40.6147C38.1339 40.6147 36.011 39.7307 34.246 37.9626C32.4779 36.1975 31.5938 34.0746 31.5938 31.5939H9.0417V81.2085ZM40.6147 31.5939H49.6355V9.04173H40.6147V31.5939Z" fill="#262626"/>
</svg>
